<?xml version="1.0" standalone="no"?>
<!DOCTYPE svg PUBLIC "-//W3C//DTD SVG 20010904//EN"
 "http://www.w3.org/TR/2001/REC-SVG-20010904/DTD/svg10.dtd">
<svg version="1.0" xmlns="http://www.w3.org/2000/svg"
 width="834.000000pt" height="834.000000pt" viewBox="0 0 834.000000 834.000000"
 preserveAspectRatio="xMidYMid meet">
<metadata>
Created by potrace 1.14, written by Peter Selinger 2001-2017
</metadata>
<g transform="translate(0.000000,834.000000) scale(0.100000,-0.100000)"
fill="#000000" stroke="none">
<path d="M4087 8334 c-1 -1 -67 -4 -147 -8 -80 -3 -156 -8 -170 -10 -14 -3
-52 -7 -84 -11 -74 -7 -202 -26 -331 -50 -110 -19 -405 -99 -535 -143 -470
-162 -922 -414 -1297 -725 -46 -37 -83 -69 -83 -70 0 -1 57 -2 127 -2 152 0
240 -9 338 -36 166 -44 312 -109 441 -195 94 -62 80 -63 192 12 149 100 337
171 552 209 63 12 323 14 395 4 318 -45 608 -190 821 -410 103 -106 124 -133
193 -239 80 -124 159 -310 185 -440 26 -126 31 -175 30 -325 0 -181 -12 -262
-61 -420 -31 -100 -117 -279 -176 -365 l-44 -65 739 -738 c406 -406 743 -735
748 -732 5 3 40 26 77 50 63 42 239 134 266 139 35 8 73 20 82 26 8 6 87 25
185 45 89 18 275 24 385 12 110 -13 130 -16 205 -36 41 -12 82 -23 90 -25 68
-18 248 -101 262 -121 4 -5 8 -6 8 -2 0 9 98 -56 175 -117 71 -56 194 -184
253 -263 84 -112 154 -246 206 -398 6 -17 9 -18 16 -4 5 8 19 49 30 90 19 63
28 98 55 199 8 33 54 247 59 275 2 17 10 66 16 110 6 44 13 92 16 108 4 27 7
56 21 232 9 118 9 442 -1 575 -7 103 -9 120 -21 210 -3 25 -8 63 -10 85 -3 22
-7 51 -10 65 -3 14 -8 39 -10 55 -3 17 -10 53 -15 80 -6 28 -12 60 -15 73 -2
12 -17 78 -34 145 -110 450 -309 899 -574 1297 -55 82 -215 299 -232 315 -6 6
-43 48 -82 95 -78 93 -296 315 -389 396 -47 41 -149 125 -259 212 -5 4 -62 44
-125 89 -354 249 -788 457 -1200 577 -69 20 -134 38 -145 41 -114 26 -204 46
-220 49 -101 19 -198 35 -235 40 -150 19 -217 25 -330 32 -94 5 -329 11 -333
8z"/>
<path d="M1518 6935 c-2 -1 -33 -5 -69 -8 -101 -9 -224 -43 -334 -94 -42 -19
-179 -106 -200 -126 -6 -7 -32 -30 -56 -53 -72 -67 -138 -149 -190 -240 -27
-47 -49 -89 -49 -93 0 -4 -7 -22 -15 -39 -9 -17 -27 -75 -41 -129 -22 -81 -26
-122 -27 -233 0 -129 3 -161 24 -257 29 -134 103 -286 193 -398 69 -85 3597
-3604 3666 -3655 98 -74 270 -155 370 -174 19 -3 46 -8 60 -11 307 -65 667 44
902 271 168 163 250 317 304 569 13 62 13 271 -1 346 -18 101 -58 217 -106
309 -65 124 -57 120 -137 66 -38 -25 -75 -46 -81 -46 -6 0 -11 -4 -11 -10 0
-5 -9 -10 -19 -10 -11 0 -21 -4 -23 -8 -2 -6 -153 -76 -168 -77 -3 -1 -30 -9
-61 -18 -31 -9 -67 -19 -80 -21 -13 -3 -24 -5 -24 -6 0 -12 -210 -34 -320 -34
-72 1 -206 11 -245 20 -13 2 -190 50 -215 58 -10 3 -46 17 -95 39 -14 6 -27
11 -30 11 -26 5 -254 145 -270 166 -3 3 -16 14 -30 23 -46 32 -162 151 -225
232 -220 282 -321 627 -291 1000 3 35 10 85 22 148 29 158 115 364 208 500 25
37 46 70 46 73 0 16 -1673 1675 -1730 1716 -83 59 -206 120 -295 146 -67 20
-91 26 -162 38 -37 6 -190 13 -195 9z"/>
<path d="M3195 6929 c-161 -17 -268 -52 -418 -138 l-59 -33 143 -144 c79 -79
147 -144 151 -144 3 0 108 101 232 225 195 194 222 225 203 230 -40 9 -180 12
-252 4z"/>
<path d="M3576 6484 c-157 -157 -286 -289 -286 -292 0 -4 68 -74 150 -157
l150 -150 289 290 290 289 -36 50 c-63 88 -186 206 -259 249 -6 4 -136 -118
-298 -279z"/>
<path d="M4088 5840 c-120 -120 -218 -222 -218 -227 1 -4 63 -71 140 -147 118
-118 141 -138 154 -127 26 22 114 213 135 293 25 99 35 189 33 311 -1 95 -5
118 -20 116 -4 0 -105 -99 -224 -219z"/>
<path d="M186 5408 c-23 -83 -75 -278 -81 -303 -17 -82 -54 -278 -59 -315 -10
-78 -18 -134 -22 -160 -25 -164 -25 -744 0 -910 2 -14 7 -50 11 -80 9 -82 15
-116 32 -210 8 -47 17 -96 20 -110 7 -42 63 -261 85 -335 231 -767 677 -1455
1277 -1967 116 -99 204 -169 261 -208 19 -13 37 -27 40 -30 33 -37 374 -242
540 -325 197 -98 524 -233 608 -250 9 -2 29 -8 44 -14 23 -9 185 -54 238 -66
94 -22 234 -50 305 -60 22 -4 47 -8 55 -10 8 -2 42 -7 75 -11 33 -3 69 -8 80
-10 11 -2 58 -7 105 -10 47 -4 103 -8 125 -10 53 -4 414 -4 490 1 64 3 181 13
230 20 39 5 181 25 220 31 65 10 276 54 331 69 33 9 70 18 82 21 64 13 394
129 522 184 144 61 411 195 462 231 14 11 29 19 33 19 4 0 84 52 178 115 151
100 288 203 394 293 l32 27 -122 0 c-153 1 -303 20 -397 51 -8 3 -17 6 -20 6
-3 1 -39 13 -80 28 -101 36 -200 87 -298 153 l-81 54 -48 -33 c-26 -18 -53
-38 -60 -44 -7 -5 -59 -33 -115 -61 -57 -28 -110 -54 -118 -58 -17 -9 -184
-59 -221 -66 -111 -23 -141 -26 -281 -29 -241 -5 -473 49 -688 162 -73 39
-208 130 -259 176 -19 17 -837 832 -1818 1811 -1731 1727 -1861 1860 -1942
1995 -33 56 -97 191 -117 248 -10 28 -21 52 -24 52 -3 0 -14 -28 -24 -62z"/>
<path d="M4160 4720 c-35 -49 -97 -189 -119 -270 -29 -106 -39 -199 -34 -315
4 -121 5 -125 12 -125 3 0 107 101 231 225 l224 225 -146 145 -146 145 -22
-30z"/>
<path d="M4454 3895 c-187 -187 -283 -289 -278 -297 41 -71 182 -218 244 -254
16 -10 30 -22 30 -26 0 -29 61 25 316 277 l287 286 -149 149 c-82 83 -152 150
-157 150 -4 0 -136 -128 -293 -285z"/>
<path d="M5097 3384 c-125 -125 -226 -228 -224 -230 2 -2 35 -6 73 -9 38 -3
78 -7 89 -8 11 -2 24 -1 30 2 5 2 32 5 60 6 27 1 64 5 80 9 17 3 39 8 50 10
38 7 138 38 174 54 20 9 42 17 50 18 8 2 17 8 21 14 4 7 9 10 12 8 6 -4 98 54
98 62 0 3 -64 69 -143 148 l-143 142 -227 -226z"/>
<path d="M6728 3475 c-1 -2 -28 -6 -58 -9 -80 -7 -133 -17 -152 -27 -10 -5
-18 -7 -18 -4 0 7 -160 -52 -176 -66 -8 -6 -14 -8 -14 -4 0 5 -8 2 -17 -6 -10
-8 -29 -20 -43 -27 -14 -7 -36 -21 -48 -31 l-24 -17 45 -70 c205 -318 274
-683 202 -1065 -28 -151 -115 -356 -207 -492 -30 -44 -37 -61 -29 -71 17 -20
199 -110 261 -129 111 -33 197 -46 320 -46 111 0 146 4 239 23 203 43 456 205
577 371 16 22 32 42 35 45 12 10 85 146 107 199 152 371 65 822 -215 1108 -61
62 -147 133 -162 133 -6 0 -11 4 -11 8 0 11 -143 85 -205 107 -27 9 -57 20
-65 23 -8 3 -24 7 -35 9 -38 8 -50 11 -50 13 0 4 -57 10 -140 15 -49 4 -95 8
-102 10 -6 2 -13 2 -15 0z"/>
</g>
</svg>
